<svg id="Layer_1" data-name="Layer 1" xmlns="http://www.w3.org/2000/svg" viewBox="0 0 1080 1080"><defs><style>.cls-1{fill:#3e6e7a;stroke:#fff;stroke-miterlimit:10;stroke-width:2px;}</style></defs><path class="cls-1" d="M479.4,482.93l-84.63,35.18h0l-64.08,26.64q-.62-8.18-.62-16.5,0-7.46.5-14.78L407,468.2h0l35.34-20.94Z"/><path class="cls-1" d="M542.89,544l-140.42,32.8-62.91,14.69a211.47,211.47,0,0,1-7.5-34l62.53-22.31L496.09,499Z"/><path class="cls-1" d="M758.15,528.26c0,118.21-95.83,214-214,214A213.89,213.89,0,0,1,346,609.46l63.68-15.3,263-63.16L520,676A149.68,149.68,0,1,0,418.18,447.33l-84.64,42.36c18.16-99.81,105.53-175.47,210.57-175.47C662.32,314.22,758.15,410.05,758.15,528.26Z"/></svg>